<svg width="8" height="312" viewBox="0 0 8 312" fill="none" xmlns="http://www.w3.org/2000/svg">
<path d="M3.99902 14.0176L3.99883 80.1286L3.99821 298.05" stroke="#FF4A68" stroke-width="1.66101"/>
<path fill-rule="evenodd" clip-rule="evenodd" d="M3.99785 15.1802L0.676371 12.44L0.676371 8.20506L0.842445 7.87292L0.842445 5.46484L2.17104 2.47551L3.74874 0.39958L4.91126 2.30943L6.90415 5.3818L6.98719 6.21217L7.31934 6.62736L7.31934 12.8551L3.99785 15.1802ZM3.83215 14.2665L1.42407 12.3567L1.09192 11.2772L1.00889 8.86913L2.1714 3.96995L2.8357 3.88691L3.33392 3.13958L3.33392 2.22617L3.16785 1.72795L3.5 1.22972L4.08126 2.06009L3.83215 2.06009L3.74911 3.38869L3.16785 3.88691L3.41696 4.38513L3.83215 3.47172L4.49644 3.6378L4.49644 2.89046L5.40985 4.13602L5.57592 5.04943L6.40629 5.04943L6.57237 5.79676L5.16074 5.38158L4.74555 4.13602L4.24733 3.96995L3.5 4.63424L3.83215 12.8549L4.33037 13.2701L3.66607 13.6022L3.83215 14.2665Z" fill="#FF4A68"/>
<path fill-rule="evenodd" clip-rule="evenodd" d="M3.99726 297.219L7.31875 299.959L7.31874 304.194L7.15267 304.527L7.15267 306.935L5.82408 309.924L4.24637 312L3.08385 310.09L1.09096 307.018L1.00793 306.187L0.67578 305.772L0.675781 299.544L3.99726 297.219ZM4.24648 298.133L1.8384 300.043L1.50626 301.122L1.42322 303.53L2.58574 308.43L3.25003 308.513L3.74826 309.26L3.74826 310.173L3.58218 310.672L3.91433 311.17L4.49559 310.339L4.24648 310.339L4.16344 309.011L3.58218 308.513L3.83129 308.014L4.24648 308.928L4.91078 308.762L4.91078 309.509L5.82418 308.264L5.99026 307.35L6.82063 307.35L6.9867 306.603L5.57507 307.018L5.15989 308.264L4.66166 308.43L3.91433 307.765L4.24648 299.545L4.7447 299.129L4.0804 298.797L4.24648 298.133Z" fill="#FF4A68"/>
</svg>
