<svg width="1012" height="337" viewBox="0 0 1012 337" fill="none" xmlns="http://www.w3.org/2000/svg">
<mask id="mask0_5_55" style="mask-type:alpha" maskUnits="userSpaceOnUse" x="0" y="0" width="1012" height="337">
<rect width="1012" height="337" fill="#C4C4C4"/>
</mask>
<g mask="url(#mask0_5_55)">
<rect x="-402.005" y="557.335" width="1480" height="45" transform="rotate(-47.2805 -402.005 557.335)" fill="#FF4A68"/>
<rect x="-465" y="497.332" width="1480" height="45" transform="rotate(-47.2805 -465 497.332)" fill="#FF4A68"/>
<rect x="-329.271" y="624.498" width="1480" height="45" transform="rotate(-47.2805 -329.271 624.498)" fill="#FF4A68"/>
<rect x="-256.537" y="691.66" width="1480" height="45" transform="rotate(-47.2805 -256.537 691.66)" fill="#FF4A68"/>
<rect x="-170.579" y="771.034" width="1480" height="45" transform="rotate(-47.2805 -170.579 771.034)" fill="#FF4A68"/>
<rect x="-97.8452" y="838.197" width="1480" height="45" transform="rotate(-47.2805 -97.8452 838.197)" fill="#FF4A68"/>
<rect x="-25.1111" y="905.36" width="1480" height="45" transform="rotate(-47.2805 -25.1111 905.36)" fill="#FF4A68"/>
<rect x="47.6226" y="972.522" width="1480" height="45" transform="rotate(-47.2805 47.6226 972.522)" fill="#FF4A68"/>
<rect x="120.356" y="1039.68" width="1480" height="45" transform="rotate(-47.2805 120.356 1039.68)" fill="#FF4A68"/>
<rect x="189" y="1116.33" width="1480" height="45" transform="rotate(-47.2805 189 1116.33)" fill="#FF4A68"/>
</g>
</svg>
